:FULLY-SPECIFIED
:DEGREES
119
root 0.71766 15.7416 -3.23205 139.094 -84.6946 -134.478
lowerback 4.96066 4.03444 -0.0792481
upperback -1.66717 5.42612 1.13505
thorax -4.61777 2.70859 0.731261
lowerneck -17.8866 -0.774311 1.89201
upperneck 19.3401 -1.02656 -2.93777
head 8.99116 -0.704565 -1.45576
rclavicle -6.04305e-014 -1.56046e-014
rhumerus -14.0473 5.09755 -89.4993
rradius 40.6256
rwrist -6.99346
rhand -33.7767 -17.4739
rfingers 7.12502
rthumb -6.96406 -47.3394
lclavicle -6.04305e-014 -1.56046e-014
lhumerus -40.0939 9.77601 85.335
lradius 16.3729
lwrist -3.34819
lhand -30.4355 15.7036
lfingers 7.12502
lthumb -3.73802 45.6506
rfemur 13.7835 5.47609 30.0384
rtibia 3.81667e-014
rfoot -9.31438 -13.3106
rtoes -17.7933
lfemur -34.3936 -13.0883 -9.44161
ltibia 22.7613
lfoot -14.3819 18.5137
ltoes -13.9566
120
root 0.715784 15.7453 -3.21257 140.606 -84.558 -135.881
lowerback 4.88268 4.01933 -0.134834
upperback -1.69065 5.4019 1.12892
thorax -4.60226 2.6984 0.762636
lowerneck -17.8363 -0.691684 1.95629
upperneck 19.291 -0.924298 -2.96241
head 8.96753 -0.654352 -1.46069
rclavicle 2.06736e-014 7.25564e-015
rhumerus -14.1893 5.12352 -89.6415
rradius 40.5344
rwrist -6.81188
rhand -33.714 -17.2756
rfingers 7.12502
rthumb -6.90347 -47.143
lclavicle 2.06736e-014 7.25564e-015
lhumerus -40.0617 9.60747 85.5142
lradius 16.3529
lwrist -3.40781
lhand -30.434 15.8376
lfingers 7.12502
lthumb -3.73657 45.7846
rfemur 14.278 5.41395 29.8919
rtibia -5.40694e-014
rfoot -9.1772 -13.0411
rtoes -18.7841
lfemur -34.3981 -14.3056 -8.90049
ltibia 22.256
lfoot -15.0023 19.4788
ltoes -14.1152
121
root 0.713617 15.7465 -3.18929 142.024 -84.4333 -137.248
lowerback 4.85641 3.98201 -0.176323
upperback -1.68486 5.34938 1.13472
thorax -4.58473 2.67375 0.798418
lowerneck -17.8505 -0.597652 1.98862
upperneck 19.2649 -0.79908 -2.98098
head 8.96447 -0.595286 -1.45628
rclavicle -5.24792e-014 -4.27387e-015
rhumerus -14.2687 5.2714 -89.7769
rradius 40.3159
rwrist -6.73506
rhand -33.7204 -17.3482
rfingers 7.12502
rthumb -6.90966 -47.2154
lclavicle -5.24792e-014 -4.27387e-015
lhumerus -39.9808 9.47554 85.7111
lradius 16.3221
lwrist -3.50098
lhand -30.4038 15.9267
lfingers 7.12502
lthumb -3.70741 45.8742
rfemur 14.8151 5.33917 29.6999
rtibia 5.08889e-014
rfoot -9.01202 -12.7119
rtoes -19.6658
lfemur -34.1668 -14.5858 -8.89697
ltibia 21.9792
lfoot -15.1611 19.4651
ltoes -14.6413
122
root 0.705791 15.7425 -3.16495 143.565 -84.3211 -138.764
lowerback 4.78943 3.96368 -0.2672
upperback -1.68637 5.31876 1.13414
thorax -4.55611 2.66146 0.855562
lowerneck -17.7668 -0.523327 2.07122
upperneck 19.2309 -0.705914 -3.03947
head 8.93966 -0.55187 -1.47703
rclavicle 1.59028e-014 2.68359e-015
rhumerus -14.4728 5.39777 -89.8902
rradius 40.0655
rwrist -6.73364
rhand -33.2507 -17.0311
rfingers 7.12502
rthumb -6.45619 -46.9127
lclavicle 1.59028e-014 2.68359e-015
lhumerus -39.8664 9.23449 85.9554
lradius 16.2104
lwrist -3.44246
lhand -30.3972 15.7811
lfingers 7.12502
lthumb -3.70102 45.7287
rfemur 15.4094 5.26321 29.4752
rtibia -2.54444e-014
rfoot -8.80454 -12.3894
rtoes -20.813
lfemur -33.7324 -14.2815 -9.27058
ltibia 21.9069
lfoot -15.0787 18.7558
ltoes -15.1122
123
root 0.700477 15.7352 -3.13897 145.06 -84.1937 -140.258
lowerback 4.79636 3.95004 -0.315882
upperback -1.67424 5.29685 1.1204
thorax -4.55005 2.65183 0.870236
lowerneck -17.7792 -0.46169 2.12775
upperneck 19.2405 -0.630137 -3.06838
head 8.94711 -0.515572 -1.48696
rclavicle -7.4743e-014 -4.17448e-015
rhumerus -14.6768 5.3927 -90.0252
rradius 39.755
rwrist -6.58914
rhand -33.2601 -17.0777
rfingers 7.12502
rthumb -6.4653 -46.959
lclavicle -7.4743e-014 -4.17448e-015
lhumerus -39.6803 9.01398 86.187
lradius 16.127
lwrist -3.52113
lhand -30.3513 15.7072
lfingers 7.12502
lthumb -3.65673 45.6555
rfemur 15.9841 5.19994 29.2323
rtibia 2.54444e-014
rfoot -8.4458 -12.0553
rtoes -21.8559
lfemur -33.083 -13.3449 -9.97192
ltibia 22.0138
lfoot -14.6601 17.4558
ltoes -15.5475
124
root 0.689041 15.7242 -3.10787 145.791 -84.0588 -141.062
lowerback 4.85589 3.90826 -0.293951
upperback -1.66502 5.24354 1.14703
thorax -4.57346 2.62488 0.886314
lowerneck -17.7167 -0.386539 2.08961
upperneck 19.2353 -0.52178 -3.04118
head 8.93755 -0.464716 -1.45711
rclavicle 7.07673e-014 1.64991e-014
rhumerus -14.9569 5.50804 -90.1421
rradius 39.3397
rwrist -6.5243
rhand -33.2426 -17.121
rfingers 7.12502
rthumb -6.44842 -47.0029
lclavicle 7.07673e-014 1.64991e-014
lhumerus -39.5647 8.69911 86.5286
lradius 16.2002
lwrist -3.2096
lhand -30.4363 15.6234
lfingers 7.12502
lthumb -3.73882 45.5703
rfemur 16.6839 5.09838 29.0299
rtibia -2.22639e-014
rfoot -8.16491 -11.6429
rtoes -23.0524
lfemur -32.31 -12.1156 -10.8334
ltibia 22.3479
lfoot -14.102 15.9917
ltoes -15.9175
125
root 0.673061 15.7098 -3.07748 147.314 -83.8836 -142.615
lowerback 4.7895 3.93017 -0.298175
upperback -1.64062 5.2709 1.11796
thorax -4.5087 2.63842 0.862283
lowerneck -17.7809 -0.34889 2.14039
upperneck 19.3269 -0.484652 -3.04103
head 8.98158 -0.4444 -1.46252
rclavicle -6.12257e-014 8.44835e-015
rhumerus -15.308 5.33009 -90.273
rradius 38.9635
rwrist -6.27165
rhand -33.2807 -17.1902
rfingers 7.12502
rthumb -6.48516 -47.0709
lclavicle -6.12257e-014 8.44835e-015
lhumerus -39.3137 8.3785 86.7753
lradius 16.0651
lwrist -3.62582
lhand -30.4005 15.7683
lfingers 7.12502
lthumb -3.7042 45.7158
rfemur 17.3443 5.08408 28.777
rtibia 4.13472e-014
rfoot -7.58588 -11.3011
rtoes -23.9844
lfemur -31.5324 -10.9127 -11.6934
ltibia 22.8909
lfoot -13.6695 14.6081
ltoes -15.8617
126
root 0.653685 15.6772 -3.04463 148.794 -83.5359 -144.116
lowerback 4.65865 3.99569 -0.274368
upperback -1.58488 5.35998 1.15585
thorax -4.38026 2.6828 0.892387
lowerneck -17.8934 -0.318974 2.13322
upperneck 19.3949 -0.443276 -3.03634
head 9.02666 -0.425762 -1.45621
rclavicle -2.14687e-014 -4.37326e-015
rhumerus -15.6347 5.332 -90.3063
rradius 38.5029
rwrist -6.19011
rhand -33.237 -17.1501
rfingers 7.12502
rthumb -6.44303 -47.0321
lclavicle -2.14687e-014 -4.37326e-015
lhumerus -38.9924 8.01843 87.1327
lradius 15.9626
lwrist -3.83725
lhand -30.5007 15.5944
lfingers 7.12502
lthumb -3.80103 45.5403
rfemur 18.0147 5.21587 28.6213
rtibia 3.18055e-015
rfoot -7.02568 -11.0607
rtoes -25.4894
lfemur -30.6528 -9.82953 -12.3823
ltibia 23.4424
lfoot -13.705 13.6175
ltoes -14.5487
127
root 0.627043 15.6783 -3.01044 151.139 -83.2304 -146.498
lowerback 4.55498 4.05208 -0.361677
upperback -1.61408 5.42984 1.15382
thorax -4.3617 2.72023 0.938839
lowerneck -17.8226 -0.274163 2.15143
upperneck 19.48 -0.387487 -3.03407
head 9.04483 -0.398947 -1.45205
rclavicle -2.8625e-014 -1.13307e-014
rhumerus -16.1722 5.25769 -90.3837
rradius 38.0259
rwrist -6.05257
rhand -33.0911 -17.238
rfingers 7.12502
rthumb -6.30216 -47.1242
lclavicle -2.8625e-014 -1.13307e-014
lhumerus -38.8375 7.9568 87.2712
lradius 15.9787
lwrist -4.00015
lhand -30.2271 15.648
lfingers 7.12502
lthumb -3.53676 45.5984
rfemur 18.6673 5.37626 28.2949
rtibia 0
rfoot -6.36727 -10.7277
rtoes -26.9472
lfemur -29.8099 -9.19304 -12.9871
ltibia 23.7988
lfoot -13.0004 13.0505
ltoes -13.4896
128
root 0.596767 15.7073 -2.97535 152.713 -82.8703 -148.159
lowerback 4.52086 4.11478 -0.331805
upperback -1.6164 5.51467 1.13781
thorax -4.34245 2.76141 0.901227
lowerneck -17.7835 -0.226508 2.24777
upperneck 19.535 -0.342768 -3.06056
head 9.05771 -0.374323 -1.47194
rclavicle -1.39149e-013 -1.61016e-014
rhumerus -16.7229 5.09988 -90.5091
rradius 37.5217
rwrist -5.81431
rhand -33.0461 -17.2729
rfingers 7.12502
rthumb -6.25874 -47.1604
lclavicle -1.39149e-013 -1.61016e-014
lhumerus -38.5949 7.50524 87.6111
lradius 16.0003
lwrist -3.81485
lhand -30.4926 15.4137
lfingers 7.12502
lthumb -3.79318 45.3597
rfemur 19.3223 5.54491 28.0333
rtibia 4.13472e-014
rfoot -5.58052 -10.3438
rtoes -28.2095
lfemur -29.3741 -9.56591 -12.9972
ltibia 23.9383
lfoot -12.1817 13.7601
ltoes -14.3634
